<?xml version="1.0" encoding="UTF-8"?>
<svg xmlns="http://www.w3.org/2000/svg" viewBox="0 0 24 24" fill="none">
  <path d="M12 0C5.373 0 0 5.373 0 12s5.373 12 12 12 12-5.373 12-12S18.627 0 12 0z" fill="#4285F4"/>
  <path d="M19.5 12c0-.814-.081-1.607-.234-2.374L12 9.626v4.748h4.197c-.362 1.913-1.459 3.526-3.09 4.586v3.803C16.465 21.105 19.5 16.945 19.5 12z" fill="#34A853"/>
  <path d="M12 19.5c2.43 0 4.467-.806 5.956-2.18l-3.09-2.397c-.856.573-1.95.912-3.107.912-2.392 0-4.417-1.615-5.136-3.785H3.462v3.803C4.951 18.605 8.235 19.5 12 19.5z" fill="#FBBC05"/>
  <path d="M6.864 12.05c-.184-.557-.288-1.151-.288-1.767s.104-1.21.288-1.767V4.713H3.462C2.533 6.784 2 9.314 2 12s.533 5.216 1.462 7.287l3.402-2.634c-.719-2.17-2.744-3.785-5.136-3.785z" fill="#EA4335"/>
</svg> 