<?xml version="1.0" encoding="UTF-8"?>
<svg xmlns="http://www.w3.org/2000/svg" viewBox="0 0 24 24" fill="none">
  <path d="M12 0C5.373 0 0 5.373 0 12s5.373 12 12 12 12-5.373 12-12S18.627 0 12 0z" fill="#000000"/>
  <path d="M17.502 9.172v2.087c-.986 0-1.946-.212-2.826-.617-1.158-.532-2.12-1.314-2.826-2.273v7.744c0 2.759-2.24 5-5 5-2.759 0-5-2.241-5-5s2.241-5 5-5c.304 0 .601.027.889.08v2.196c-.286-.099-.589-.153-.906-.153-1.532 0-2.777 1.244-2.777 2.777 0 1.532 1.245 2.777 2.777 2.777 1.533 0 2.778-1.245 2.778-2.777V2.857h2.891c.041 1.896 1.587 3.422 3.482 3.422v2.893z" fill="#ffffff"/>
</svg> 